<svg width="986" height="256" viewBox="0 0 986 256" fill="none" xmlns="http://www.w3.org/2000/svg">
<g clip-path="url(#clip0_869_5)">
<path d="M948.123 218.127H910.192V158.724C910.192 144.559 909.939 126.324 890.464 126.324C870.708 126.324 867.685 141.758 867.685 157.693V218.123H829.755V95.9669H866.168V112.661H866.678C870.322 106.43 875.588 101.304 881.915 97.829C888.242 94.3541 895.393 92.6603 902.606 92.9279C941.051 92.9279 948.139 118.216 948.139 151.114L948.123 218.127ZM786.955 79.2699C774.798 79.2719 764.941 69.4179 764.939 57.2609C764.937 45.1039 774.79 35.2469 786.947 35.2449C799.104 35.2419 808.961 45.0959 808.963 57.2529C808.964 63.0909 806.646 68.6903 802.519 72.8193C798.391 76.9482 792.793 79.2686 786.955 79.2699ZM805.921 218.128H767.95V95.9669H805.92V218.127L805.921 218.128ZM967.033 0.0178995H748.89C738.58 -0.0981005 730.125 8.1609 729.999 18.4709V237.524C730.121 247.839 738.575 256.106 748.889 255.998H967.033C977.369 256.126 985.856 247.859 985.999 237.524V18.4539C985.852 8.1239 977.364 -0.134101 967.033 0.000899471" fill="#0A66C2"/>
<path d="M89.546 204.809C70.786 204.809 55.778 200.655 44.522 192.347C33.266 183.905 26.7 172.046 24.824 156.77H54.572C55.51 164.542 59.262 170.706 65.828 175.262C72.394 179.684 80.769 181.895 90.953 181.895C99.261 181.895 105.626 180.421 110.048 177.473C114.604 174.525 116.882 170.572 116.882 165.614C116.882 160.924 115.542 157.172 112.862 154.358C110.182 151.41 105.559 149.065 98.993 147.323L72.059 139.886C58.257 136 48.14 130.707 41.708 124.007C35.41 117.173 32.261 108.664 32.261 98.48C32.261 89.77 34.472 82.266 38.894 75.968C43.45 69.536 49.815 64.645 57.989 61.295C66.163 57.811 75.744 56.069 86.732 56.069C103.616 56.069 117.083 60.089 127.133 68.129C137.183 76.035 142.878 86.554 144.218 99.686H114.47C113.13 92.584 109.847 87.358 104.621 84.008C99.529 80.658 92.963 78.983 84.923 78.983C77.955 78.983 72.394 80.323 68.24 83.003C64.086 85.683 62.009 89.301 62.009 93.857C62.009 97.341 63.148 100.557 65.426 103.505C67.704 106.319 72.461 108.731 79.697 110.741L106.631 118.178C120.835 122.064 131.019 127.424 137.183 134.258C143.481 140.958 146.63 149.467 146.63 159.785C146.63 174.257 141.605 185.379 131.555 193.151C121.505 200.923 107.502 204.809 89.546 204.809ZM168.407 244.205L196.748 181.493L201.974 172.85L228.506 100.49H260.666L198.557 244.205H168.407ZM190.115 200.99L150.719 100.49H183.281L215.642 192.146L190.115 200.99ZM272.318 203V100.49H301.865V124.61H302.468V203H272.318ZM343.673 203V139.484C343.673 133.856 342.199 129.635 339.251 126.821C336.437 124.007 332.283 122.6 326.789 122.6C322.099 122.6 317.878 123.672 314.126 125.816C310.508 127.96 307.627 130.908 305.483 134.66C303.473 138.412 302.468 142.834 302.468 147.926L299.855 123.203C303.205 115.699 308.096 109.736 314.528 105.314C321.094 100.758 329.134 98.48 338.648 98.48C350.038 98.48 358.748 101.696 364.778 108.128C370.808 114.426 373.823 122.935 373.823 133.655V203H343.673ZM445.005 205.01C433.615 205.01 423.699 202.799 415.257 198.377C406.815 193.821 400.249 187.523 395.559 179.483C391.003 171.443 388.725 162.197 388.725 151.745C388.725 141.159 391.003 131.913 395.559 124.007C400.249 115.967 406.748 109.736 415.056 105.314C423.364 100.758 433.012 98.48 444 98.48C454.586 98.48 463.765 100.624 471.537 104.912C479.309 109.2 485.339 115.163 489.627 122.801C493.915 130.439 496.059 139.417 496.059 149.735C496.059 151.879 495.992 153.889 495.858 155.765C495.724 157.507 495.523 159.182 495.255 160.79H406.413V140.891H470.934L465.708 144.509C465.708 136.201 463.698 130.104 459.678 126.218C455.792 122.198 450.432 120.188 443.598 120.188C435.692 120.188 429.528 122.868 425.106 128.228C420.818 133.588 418.674 141.628 418.674 152.348C418.674 162.8 420.818 170.572 425.106 175.664C429.528 180.756 436.094 183.302 444.804 183.302C449.628 183.302 453.782 182.498 457.266 180.89C460.75 179.282 463.363 176.669 465.105 173.051H493.446C490.096 182.967 484.334 190.806 476.16 196.568C468.12 202.196 457.735 205.01 445.005 205.01ZM512.183 203V100.49H541.73V124.61H542.333V203H512.183ZM542.333 149.534L539.72 125.213C542.132 116.503 546.085 109.87 551.579 105.314C557.073 100.758 563.907 98.48 572.081 98.48C574.627 98.48 576.503 98.748 577.709 99.284V127.424C577.039 127.156 576.101 127.022 574.895 127.022C573.689 126.888 572.215 126.821 570.473 126.821C560.825 126.821 553.723 128.563 549.167 132.047C544.611 135.397 542.333 141.226 542.333 149.534ZM637.934 246.215C623.73 246.215 612.139 243.2 603.161 237.17C594.317 231.14 589.091 222.966 587.483 212.648H616.025C617.097 215.194 619.375 217.137 622.859 218.477C626.477 219.817 631.033 220.487 636.527 220.487C645.639 220.487 652.272 218.745 656.426 215.261C660.58 211.777 662.657 206.35 662.657 198.98V176.669L664.265 177.071C662.925 184.575 659.039 190.538 652.607 194.96C646.175 199.248 638.202 201.392 628.688 201.392C619.576 201.392 611.603 199.315 604.769 195.161C598.069 190.873 592.843 184.91 589.091 177.272C585.339 169.634 583.463 160.656 583.463 150.338C583.463 139.886 585.406 130.774 589.292 123.002C593.178 115.23 598.605 109.2 605.573 104.912C612.675 100.624 620.916 98.48 630.296 98.48C639.944 98.48 647.783 100.758 653.813 105.314C659.977 109.87 663.595 116.101 664.667 124.007L663.26 124.208V100.49H692.807V198.578C692.807 213.318 687.916 224.909 678.134 233.351C668.352 241.927 654.952 246.215 637.934 246.215ZM639.14 178.277C646.242 178.277 652.004 175.865 656.426 171.041C660.848 166.083 663.059 159.048 663.059 149.936C663.059 140.824 660.781 133.856 656.225 129.032C651.803 124.074 645.974 121.595 638.738 121.595C631.77 121.595 626.008 124.074 621.452 129.032C617.03 133.99 614.819 141.025 614.819 150.137C614.819 159.249 617.03 166.217 621.452 171.041C626.008 175.865 631.904 178.277 639.14 178.277Z" fill="#0A66C2"/>
</g>
<defs>
<clipPath id="clip0_869_5">
<rect width="986" height="256" fill="white"/>
</clipPath>
</defs>
</svg>
